HIERARCHY
ROOT Hips
{
    OFFSET 0.000000 0.000000 0.000000
    CHANNELS 6 Xposition Yposition Zposition Zrotation Xrotation Yrotation
    JOINT Spine
    {
        OFFSET 0.000001 7.292995 0.000000
        CHANNELS 3 Zrotation Xrotation Yrotation
        JOINT Spine1
        {
            OFFSET -0.000000 20.255388 0.000001
            CHANNELS 3 Zrotation Xrotation Yrotation
            JOINT Neck
            {
                OFFSET 0.000001 20.786594 0.000000
                CHANNELS 3 Zrotation Xrotation Yrotation
                JOINT Head
                {
                    OFFSET 0.000003 12.530788 1.776080
                    CHANNELS 3 Zrotation Xrotation Yrotation
                    End Site
                    {
                        OFFSET 0.000000 17.760757 0.000000
                    }
                }
            }
            JOINT LeftShoulder
            {
                OFFSET 3.550532 15.465697 -0.908801
                CHANNELS 3 Zrotation Xrotation Yrotation
                JOINT LeftArm
                {
                    OFFSET 12.513301 -0.000005 0.000001
                    CHANNELS 3 Zrotation Xrotation Yrotation
                    JOINT LeftForeArm
                    {
                        OFFSET 24.225992 0.000005 0.000000
                        CHANNELS 3 Zrotation Xrotation Yrotation
                        JOINT LeftHand
                        {
                            OFFSET 20.711395 -0.000004 0.000000
                            CHANNELS 3 Zrotation Xrotation Yrotation
                            JOINT LeftHandThumb1
                            {
                                OFFSET 2.121964 -2.411326 3.375861
                                CHANNELS 3 Zrotation Xrotation Yrotation
                                JOINT LeftHandThumb2
                                {
                                    OFFSET 2.803212 -0.000001 -0.000002
                                    CHANNELS 3 Zrotation Xrotation Yrotation
                                    JOINT LeftHandThumb3
                                    {
                                        OFFSET 2.395929 0.000000 0.000000
                                        CHANNELS 3 Zrotation Xrotation Yrotation
                                        End Site
                                        {
                                            OFFSET 2.127676 0.000000 0.000000
                                        }
                                    }
                                }
                            }
                            JOINT LeftHandIndex1
                            {
                                OFFSET 8.680776 0.000004 3.375861
                                CHANNELS 3 Zrotation Xrotation Yrotation
                                JOINT LeftHandIndex2
                                {
                                    OFFSET 4.218180 -0.000002 0.000001
                                    CHANNELS 3 Zrotation Xrotation Yrotation
                                    JOINT LeftHandIndex3
                                    {
                                        OFFSET 2.109090 0.000001 -0.000000
                                        CHANNELS 3 Zrotation Xrotation Yrotation
                                        End Site
                                        {
                                            OFFSET 1.872952 0.000000 0.000000
                                        }
                                    }
                                }
                            }
                            JOINT LeftHandMiddle1
                            {
                                OFFSET 8.680775 0.000001 1.118862
                                CHANNELS 3 Zrotation Xrotation Yrotation
                                JOINT LeftHandMiddle2
                                {
                                    OFFSET 4.640000 0.000002 -0.000000
                                    CHANNELS 3 Zrotation Xrotation Yrotation
                                    JOINT LeftHandMiddle3
                                    {
                                        OFFSET 2.530906 0.000005 0.000000
                                        CHANNELS 3 Zrotation Xrotation Yrotation
                                        End Site
                                        {
                                            OFFSET 2.247544 0.000000 0.000000
                                        }
                                    }
                                }
                            }
                            JOINT LeftHandRing1
                            {
                                OFFSET 8.198514 -0.000004 -1.118859
                                CHANNELS 3 Zrotation Xrotation Yrotation
                                JOINT LeftHandRing2
                                {
                                    OFFSET 4.218182 -0.000003 -0.000001
                                    CHANNELS 3 Zrotation Xrotation Yrotation
                                    JOINT LeftHandRing3
                                    {
                                        OFFSET 2.109086 0.000004 0.000001
                                        CHANNELS 3 Zrotation Xrotation Yrotation
                                        End Site
                                        {
                                            OFFSET 1.872952 0.000000 0.000000
                                        }
                                    }
                                }
                            }
                            JOINT LeftHandPinky1
                            {
                                OFFSET 7.716242 0.000005 -3.375859
                                CHANNELS 3 Zrotation Xrotation Yrotation
                                JOINT LeftHandPinky2
                                {
                                    OFFSET 3.374535 0.000004 0.000002
                                    CHANNELS 3 Zrotation Xrotation Yrotation
                                    JOINT LeftHandPinky3
                                    {
                                        OFFSET 1.687275 0.000002 -0.000001
                                        CHANNELS 3 Zrotation Xrotation Yrotation
                                        End Site
                                        {
                                            OFFSET 1.498360 0.000000 0.000000
                                        }
                                    }
                                }
                            }
                        }
                    }
                }
            }
            JOINT RightShoulder
            {
                OFFSET -3.550531 15.465694 -0.908802
                CHANNELS 3 Zrotation Xrotation Yrotation
                JOINT RightArm
                {
                    OFFSET -12.513298 -0.000004 0.000001
                    CHANNELS 3 Zrotation Xrotation Yrotation
                    JOINT RightForeArm
                    {
                        OFFSET -24.225996 -0.000002 -0.000000
                        CHANNELS 3 Zrotation Xrotation Yrotation
                        JOINT RightHand
                        {
                            OFFSET -20.711401 0.000005 0.000001
                            CHANNELS 3 Zrotation Xrotation Yrotation
                            JOINT RightHandThumb1
                            {
                                OFFSET -2.121970 -2.411334 3.375861
                                CHANNELS 3 Zrotation Xrotation Yrotation
                                JOINT RightHandThumb2
                                {
                                    OFFSET -2.803210 0.000003 -0.000004
                                    CHANNELS 3 Zrotation Xrotation Yrotation
                                    JOINT RightHandThumb3
                                    {
                                        OFFSET -2.395930 -0.000001 0.000002
                                        CHANNELS 3 Zrotation Xrotation Yrotation
                                        End Site
                                        {
                                            OFFSET -2.127676 0.000000 0.000000
                                        }
                                    }
                                }
                            }
                            JOINT RightHandIndex1
                            {
                                OFFSET -8.680779 0.000001 3.375860
                                CHANNELS 3 Zrotation Xrotation Yrotation
                                JOINT RightHandIndex2
                                {
                                    OFFSET -4.218180 0.000000 -0.000000
                                    CHANNELS 3 Zrotation Xrotation Yrotation
                                    JOINT RightHandIndex3
                                    {
                                        OFFSET -2.109090 0.000001 -0.000000
                                        CHANNELS 3 Zrotation Xrotation Yrotation
                                        End Site
                                        {
                                            OFFSET -1.872952 0.000000 0.000000
                                        }
                                    }
                                }
                            }
                            JOINT RightHandMiddle1
                            {
                                OFFSET -8.680780 0.000001 1.118860
                                CHANNELS 3 Zrotation Xrotation Yrotation
                                JOINT RightHandMiddle2
                                {
                                    OFFSET -4.640000 -0.000002 0.000001
                                    CHANNELS 3 Zrotation Xrotation Yrotation
                                    JOINT RightHandMiddle3
                                    {
                                        OFFSET -2.530910 0.000001 -0.000000
                                        CHANNELS 3 Zrotation Xrotation Yrotation
                                        End Site
                                        {
                                            OFFSET -2.247544 0.000000 0.000000
                                        }
                                    }
                                }
                            }
                            JOINT RightHandRing1
                            {
                                OFFSET -8.198519 0.000005 -1.118860
                                CHANNELS 3 Zrotation Xrotation Yrotation
                                JOINT RightHandRing2
                                {
                                    OFFSET -4.218180 -0.000006 0.000000
                                    CHANNELS 3 Zrotation Xrotation Yrotation
                                    JOINT RightHandRing3
                                    {
                                        OFFSET -2.109090 0.000001 -0.000000
                                        CHANNELS 3 Zrotation Xrotation Yrotation
                                        End Site
                                        {
                                            OFFSET -1.872952 0.000000 0.000000
                                        }
                                    }
                                }
                            }
                            JOINT RightHandPinky1
                            {
                                OFFSET -7.716248 -0.000002 -3.375859
                                CHANNELS 3 Zrotation Xrotation Yrotation
                                JOINT RightHandPinky2
                                {
                                    OFFSET -3.374540 0.000000 0.000000
                                    CHANNELS 3 Zrotation Xrotation Yrotation
                                    JOINT RightHandPinky3
                                    {
                                        OFFSET -1.687270 0.000004 0.000001
                                        CHANNELS 3 Zrotation Xrotation Yrotation
                                        End Site
                                        {
                                            OFFSET -1.498360 0.000000 0.000000
                                        }
                                    }
                                }
                            }
                        }
                    }
                }
            }
        }
    }
    JOINT LeftUpLeg
    {
        OFFSET 8.880376 -0.000000 -0.000000
        CHANNELS 3 Zrotation Xrotation Yrotation
        JOINT LeftLeg
        {
            OFFSET -0.000001 -40.387405 -0.000001
            CHANNELS 3 Zrotation Xrotation Yrotation
            JOINT LeftFoot
            {
                OFFSET -0.000001 -36.911297 -0.000001
                CHANNELS 3 Zrotation Xrotation Yrotation
                JOINT LeftToeBase
                {
                    OFFSET -0.000002 -5.772240 13.320604
                    CHANNELS 3 Zrotation Xrotation Yrotation
                    End Site
                    {
                        OFFSET 0.000000 0.000000 3.552151
                    }
                }
            }
        }
    }
    JOINT RightUpLeg
    {
        OFFSET -8.880376 0.000000 0.000000
        CHANNELS 3 Zrotation Xrotation Yrotation
        JOINT RightLeg
        {
            OFFSET -0.000001 -40.387390 0.000000
            CHANNELS 3 Zrotation Xrotation Yrotation
            JOINT RightFoot
            {
                OFFSET 0.000002 -36.911297 -0.000001
                CHANNELS 3 Zrotation Xrotation Yrotation
                JOINT RightToeBase
                {
                    OFFSET 0.000001 -5.772238 13.320600
                    CHANNELS 3 Zrotation Xrotation Yrotation
                    End Site
                    {
                        OFFSET 0.000000 0.000000 3.552151
                    }
                }
            }
        }
    }
}
MOTION
Frames: 4
Frame Time: 0.013889
71.622864    83.898712    16.486029    -0.942948    10.087721    4.666181    0.148972    -22.689066    0.386204    0.402369    15.372422    0.236915    -1.920896    -11.338596    -2.922418    1.615927    3.638642    -2.692788    -3.017964    6.023088    -0.879256    -66.616592    38.167267    -11.378021    -7.884941    -22.962286    -19.544767    -2.823473    5.183724    7.928437    27.124121    37.315395    -38.940681    -11.516706    0.168609    23.316908    -0.000000    0.000000    -0.000000    -2.823872    17.979509    -1.706183    -2.685862    -0.000004    0.000005    -2.685865    -0.000000    0.000002    -1.386467    8.997413    -1.072369    -1.369404    -0.000002    -0.000000    -1.369404    0.000003    0.000001    -0.720028    -8.999307    -1.637291    -0.711177    -0.000000    0.000001    -0.711180    -0.000001    0.000002    -0.055661    -17.999950    -3.066517    -0.052944    0.000000    0.000000    -0.052944    -0.000000    0.000000    6.163032    6.693218    3.460479    62.751556    40.311909    9.962209    7.237412    -22.627127    18.267065    4.075529    -3.726958    -11.347764    -38.224152    29.345396    43.401093    13.668377    -0.758656    -23.305819    -0.000000    0.000000    -0.000000    11.719352    17.648247    3.622579    11.160503    -0.000002    -0.000002    11.160529    -0.000002    -0.000002    16.551931    8.632802    1.056329    16.359112    -0.000000    -0.000002    16.359108    0.000001    -0.000000    19.177563    -8.508068    0.601518    18.958395    -0.000004    -0.000003    18.958405    0.000000    0.000002    22.558275    -16.702356    2.119959    21.557690    -0.000002    -0.000001    21.557703    0.000000    -0.000001    -0.037084    -8.395876    6.927050    0.000000    4.792557    -0.000003    -6.303235    -5.057265    -10.826576    -0.000000    -1.476045    0.000000    2.008606    -6.535273    -16.632874    -0.000000    4.894935    0.000000    5.276081    -6.619092    2.876977    0.000000    6.084084    0.000000    
71.629875    83.896461    16.466948    -0.981528    10.079537    4.717850    0.147524    -22.674564    0.382682    0.377854    15.373641    0.240303    -1.941176    -11.294109    -2.937020    1.647343    3.687927    -2.707968    -3.026452    6.010749    -0.866215    -66.576019    38.137478    -11.379354    -7.863702    -22.989809    -19.475029    -2.835827    5.176685    7.949095    27.134727    37.307205    -38.910519    -11.516782    0.168584    23.316900    -0.000000    0.000000    -0.000000    -2.822038    17.979530    -1.848478    -2.684122    0.000002    0.000000    -2.684129    0.000002    0.000002    -1.394947    8.997383    -1.141910    -1.377779    -0.000007    -0.000001    -1.377779    -0.000002    0.000001    -0.733630    -8.999276    -1.640166    -0.724602    -0.000002    -0.000000    -0.724605    0.000000    -0.000001    -0.075110    -17.999939    -3.074021    -0.071420    0.000001    0.000002    -0.071434    0.000000    -0.000001    6.123279    6.704991    3.470636    62.715076    40.416718    10.007237    7.296041    -22.609476    18.419287    4.283789    -3.805559    -11.367759    -38.287994    29.283821    43.466686    13.651855    -0.751537    -23.306036    -0.000000    0.000000    -0.000000    11.892438    17.637791    3.687912    11.325801    0.000004    0.000005    11.325788    0.000001    -0.000004    16.817644    8.620990    1.075378    16.622063    0.000002    -0.000004    16.622066    -0.000001    0.000002    19.492403    -8.491923    0.639923    19.270195    0.000003    0.000001    19.270203    -0.000001    0.000000    22.932045    -16.659271    2.210986    21.918335    0.000004    0.000003    21.918341    0.000000    -0.000000    -0.006455    -8.390921    6.932947    0.000000    4.768226    -0.000000    -6.376041    -5.068160    -10.898355    -0.000001    -1.457922    0.000000    2.035527    -6.544848    -16.625509    0.000001    4.909544    -0.000003    5.257514    -6.594586    2.841105    0.000001    6.108151    -0.000001    
71.635323    83.894356    16.453760    -1.015967    10.069761    4.760828    0.148731    -22.663704    0.385987    0.370392    15.380292    0.245198    -1.977419    -11.259010    -2.957456    1.661356    3.731894    -2.724443    -3.031174    6.002497    -0.850816    -66.536766    38.123516    -11.385149    -7.863861    -22.989067    -19.475950    -2.837797    5.212657    7.937612    27.071411    37.345806    -38.818932    -11.552654    0.153119    23.317001    -0.000000    0.000000    -0.000000    -2.827643    17.979445    -1.891709    -2.689452    0.000007    0.000004    -2.689458    -0.000002    -0.000000    -1.408754    8.997328    -1.162231    -1.391414    0.000003    0.000001    -1.391407    -0.000002    0.000001    -0.751639    -8.999244    -1.642983    -0.742387    -0.000001    0.000001    -0.742408    0.000001    -0.000002    -0.098175    -17.999929    -3.081149    -0.093378    -0.000000    -0.000001    -0.093371    0.000000    -0.000001    6.122675    6.712076    3.502414    62.658421    40.486053    10.052112    7.344566    -22.624847    18.523615    4.418062    -3.878415    -11.204500    -38.298935    29.272951    43.479042    13.658455    -0.754380    -23.305950    -0.000000    0.000000    -0.000000    12.002672    17.631067    3.710207    11.431078    0.000001    0.000029    11.431065    0.000001    -0.000005    16.987501    8.613337    1.077768    16.790203    0.000009    0.000011    16.790199    -0.000000    -0.000002    19.693878    -8.481453    0.626074    19.469774    0.000007    0.000006    19.469759    -0.000001    0.000000    23.171370    -16.631323    2.192372    22.149332    0.000006    0.000008    22.149324    -0.000001    -0.000001    0.020451    -8.388970    6.950583    -0.000000    4.749835    0.000002    -6.398792    -5.068707    -10.965160    -0.000000    -1.430919    0.000000    2.058854    -6.551198    -16.634422    0.000000    4.923526    -0.000002    5.241336    -6.598787    2.809256    -0.000000    6.097991    0.000001    
71.637047    83.893990    16.437239    -1.054559    10.055247    4.804902    0.148146    -22.645483    0.384762    0.338136    15.388340    0.252647    -1.971897    -11.227457    -2.985538    1.699531    3.760410    -2.758209    -3.054467    6.003236    -0.873348    -66.463387    38.107510    -11.388428    -7.829053    -22.954454    -19.420822    -2.918806    5.272006    8.000371    27.007759    37.383705    -38.710194    -11.589783    0.137123    23.317099    -0.000000    0.000000    -0.000000    -2.843618    17.979218    -1.889101    -2.704635    -0.000005    0.000003    -2.704655    0.000004    -0.000007    -1.424733    8.997267    -1.160893    -1.407188    0.000002    0.000003    -1.407191    -0.000002    -0.000000    -0.767924    -8.999208    -1.642599    -0.758484    0.000001    -0.000002    -0.758457    -0.000000    0.000001    -0.115392    -17.999922    -3.080604    -0.109748    -0.000000    -0.000001    -0.109738    0.000000    0.000001    6.114178    6.730764    3.551618    62.592381    40.606518    10.114123    7.362569    -22.579723    18.599113    4.645901    -3.909886    -11.187716    -38.268677    29.310308    43.416588    13.688258    -0.767221    -23.305552    -0.000000    0.000000    -0.000000    12.103080    17.624868    3.702941    11.526969    0.000001    -0.000005    11.526965    0.000002    -0.000002    17.126106    8.607048    1.068589    16.927351    0.000001    -0.000007    16.927374    -0.000000    0.000004    19.853218    -8.473099    0.565124    19.627558    0.000000    -0.000000    19.627567    -0.000000    -0.000002    23.356205    -16.609539    2.076371    22.327768    -0.000002    -0.000001    22.327772    -0.000000    0.000001    0.054692    -8.401067    6.971659    -0.000000    4.763984    0.000000    -6.404518    -5.068259    -11.033354    -0.000001    -1.403386    0.000000    2.093056    -6.551672    -16.630501    0.000000    4.931307    -0.000000    5.216838    -6.585956    2.771849    -0.000001    6.077457    0.000001    
